<?xml version="1.0" encoding="UTF-8" standalone="no"?>
<!-- Created with Inkscape (http://www.inkscape.org/) -->

<svg
   xmlns:dc="http://purl.org/dc/elements/1.1/"
   xmlns:cc="http://creativecommons.org/ns#"
   xmlns:rdf="http://www.w3.org/1999/02/22-rdf-syntax-ns#"
   xmlns:svg="http://www.w3.org/2000/svg"
   xmlns="http://www.w3.org/2000/svg"
   xmlns:sodipodi="http://sodipodi.sourceforge.net/DTD/sodipodi-0.dtd"
   xmlns:inkscape="http://www.inkscape.org/namespaces/inkscape"
   width="360"
   height="120"
   id="svg2"
   version="1.1"
   inkscape:version="0.48.4 r9939"
   viewBox="0 0 {width} {height}"
   preserveAspectRatio="xMinYMin meet"
   sodipodi:docname="banner.svg">
  <defs
     id="defs4" />
  <sodipodi:namedview
     id="base"
     pagecolor="#ffffff"
     bordercolor="#666666"
     borderopacity="1.0"
     inkscape:pageopacity="0.14509804"
     inkscape:pageshadow="2"
     inkscape:zoom="2.2777778"
     inkscape:cx="180"
     inkscape:cy="60"
     inkscape:document-units="px"
     inkscape:current-layer="layer1"
     showgrid="false"
     inkscape:window-width="1301"
     inkscape:window-height="744"
     inkscape:window-x="65"
     inkscape:window-y="24"
     inkscape:window-maximized="1" />
  <metadata
     id="metadata7">
    <rdf:RDF>
      <cc:Work
         rdf:about="">
        <dc:format>image/svg+xml</dc:format>
        <dc:type
           rdf:resource="http://purl.org/dc/dcmitype/StillImage" />
        <dc:title />
      </cc:Work>
    </rdf:RDF>
  </metadata>
  <g
     inkscape:label="Layer 1"
     inkscape:groupmode="layer"
     id="layer1"
     transform="translate(0,-932.36218)">
    <rect
       style="color:#000000;fill:#bbeeff;fill-opacity:1;fill-rule:nonzero;stroke:none;stroke-width:1;marker:none;visibility:visible;display:inline;overflow:visible;enable-background:accumulate"
       id="rect3805"
       width="360"
       height="120"
       x="0"
       y="932.36218"
       ry="0" />
    <text
       xml:space="preserve"
       style="font-size:40px;font-style:normal;font-weight:normal;line-height:125%;letter-spacing:0px;word-spacing:0px;fill:#000000;fill-opacity:0.25098041;stroke:none;font-family:Sans"
       x="5.0087023"
       y="1020.1187"
       id="text2985"
       sodipodi:linespacing="125%"><tspan
         sodipodi:role="line"
         id="tspan2987"
         x="5.0087023"
         y="1020.1187"
         style="font-size:18px;fill:#000000;fill-opacity:0.25098041">Placeholder</tspan><tspan
         sodipodi:role="line"
         x="5.0087023"
         y="1042.6187"
         id="tspan2989"
         style="font-size:18px;fill:#000000;fill-opacity:0.25098041">Image</tspan></text>
    <path
       style="color:#000000;fill:#d8ffff;fill-opacity:1;fill-rule:nonzero;stroke:none;stroke-width:1;marker:none;visibility:visible;display:inline;overflow:visible;enable-background:accumulate"
       id="path3807"
       d="m 137.36095,30.31673 c 2.87271,-1.608368 5.94163,-2.824604 9.01286,-3.99271 3.66992,-1.363375 7.48072,-2.300748 11.38532,-2.600236 3.2648,-0.06543 5.54907,1.138217 6.84448,4.276706 0.52308,1.267309 0.51676,2.608226 0.61167,3.940427 -0.0223,0.704261 -0.0265,1.409323 -0.0668,2.112784 -0.0858,1.498623 -0.27648,3.086447 -0.42431,4.576952 -0.24421,2.462283 -0.44104,4.918829 -0.57531,7.389398 -0.055,1.461994 -0.11354,2.373478 -0.0854,3.794908 0.008,0.391806 0.014,0.785073 0.0618,1.174022 0.0121,0.09853 0.16103,0.36279 0.11638,0.274131 -1.66115,-3.298052 -0.27752,-1.967169 -4.30304,-3.425218 0.0451,-0.113187 0.0455,-0.257031 0.13516,-0.33956 0.48389,-0.445663 1.04102,-0.804695 1.55418,-1.216313 0.72984,-0.585407 1.45201,-1.180314 2.17462,-1.774612 2.62814,-2.16146 5.25904,-4.305245 7.94331,-6.397105 2.18163,-1.652169 4.3876,-3.276805 6.6806,-4.772479 0.83457,-0.544368 1.89237,-1.205488 2.7991,-1.66133 0.37836,-0.190213 0.77346,-0.345139 1.16018,-0.517709 0.5497,-0.132373 1.08425,-0.371991 1.6491,-0.397119 2.27529,-0.101219 3.43548,0.402939 5.04697,2.313789 1.06957,1.268264 1.00045,3.467856 0.98886,5.015203 -0.055,2.21639 -0.31293,4.423112 -0.38271,6.638752 -0.044,1.395814 -0.001,1.802518 0.0594,3.158647 0.084,0.809541 0.0968,1.251274 0.27601,2.003101 0.0325,0.136413 0.0115,0.463045 0.13584,0.398165 0.12805,-0.06683 -0.0156,-0.298038 -0.0844,-0.425023 -0.64904,-1.197428 -0.68713,-1.006631 -1.85576,-1.739208 -0.11586,-0.06408 -0.43317,-0.0912 -0.34759,-0.19223 0.17104,-0.201931 0.49877,-0.177506 0.74433,-0.276147 0.44203,-0.177558 0.88236,-0.359655 1.31803,-0.552287 2.13523,-0.944106 4.23117,-1.982096 6.34821,-2.965986 0.81087,-0.38177 1.62174,-0.76354 2.43261,-1.145309 6.00813,-2.828552 10.00831,5.668223 4.00018,8.496775 l 0,0 c -0.82515,0.388448 -1.6503,0.776897 -2.47545,1.165346 -2.26805,1.053619 -4.50914,2.196084 -6.81422,3.167384 -1.2231,0.515385 -3.03874,1.241181 -4.37739,1.427568 -0.86464,0.120389 -1.74483,0.06287 -2.61724,0.09431 -0.92175,-0.346455 -1.93372,-0.511896 -2.76524,-1.039364 -2.72563,-1.728975 -3.05102,-5.159861 -3.30133,-8.031568 -0.0712,-1.863277 -0.11386,-2.157625 -0.0526,-4.070138 0.0674,-2.106083 0.30448,-4.203913 0.37005,-6.310052 0.0106,-0.194918 0.007,-0.39113 0.0317,-0.584754 0.003,-0.02017 0.0377,-0.05523 0.048,-0.03769 0.22988,0.391548 0.30195,0.897486 0.63684,1.204091 1.51533,1.387367 2.76387,2.113722 4.65795,1.328183 -0.84954,0.29426 -1.64551,0.844607 -2.38871,1.327607 -2.11254,1.37294 -4.14127,2.870208 -6.15053,4.388525 -2.6311,2.048197 -5.20498,4.152795 -7.78177,6.268402 -0.82622,0.67835 -3.67364,3.031109 -4.64361,3.649127 -0.87461,0.557256 -1.82559,0.984444 -2.73838,1.476665 -1.71597,-0.209345 -3.60915,0.159726 -5.14791,-0.628036 -1.12382,-0.575332 -1.58751,-1.986324 -2.15843,-3.112392 -0.26633,-0.525312 -0.23779,-1.15544 -0.30219,-1.740881 -0.21617,-1.965346 7.7e-4,-3.962485 0.0273,-5.928793 0.24354,-4.367311 0.74207,-8.708602 1.06515,-13.068915 -0.009,-1.45747 -0.0152,-0.625073 0.76783,-0.05291 0.99983,0.730604 1.13898,0.70858 2.15116,0.749671 0.11808,0.0048 -0.23496,-0.02556 -0.35245,-0.03834 -2.98937,0.161974 -5.88951,1.026299 -8.69935,2.012031 -2.65014,1.001876 -5.30268,2.03964 -7.78238,3.42122 -5.80498,3.224987 -10.3658,-4.98449 -4.56082,-8.209477 z"
       inkscape:connector-curvature="0"
       transform="translate(0,972.36218)" />
    <path
       style="color:#000000;fill:#d8ffff;fill-opacity:1;fill-rule:nonzero;stroke:none;stroke-width:1;marker:none;visibility:visible;display:inline;overflow:visible;enable-background:accumulate"
       id="path3811"
       d="m 227.89299,30.788098 c 1.42694,-1.485524 3.08602,-2.730722 5.02051,-3.48618 1.82001,-0.710757 2.89743,-0.780025 4.80415,-1.085779 5.46633,-0.5503 10.96258,0.156401 16.22087,1.696409 1.29375,0.378903 2.56027,0.845239 3.8404,1.267859 5.2974,1.98298 10.39201,4.572267 14.85672,8.073848 2.55411,2.003133 3.16093,2.771341 5.36205,5.035375 2.30931,2.855723 4.86315,6.009646 5.29682,9.814815 0.0992,0.870627 0.12969,1.768851 -0.0402,2.628482 -0.18665,0.944281 -0.67585,1.802566 -1.01378,2.703849 -0.64314,0.70086 -1.17827,1.518956 -1.92941,2.102582 -2.18101,1.694612 -5.83762,2.226524 -8.40623,1.153037 -0.71122,-0.297238 -1.33549,-0.770205 -2.00323,-1.155308 -0.5882,-0.761164 -1.32777,-1.426445 -1.7646,-2.283491 -1.54342,-3.028155 -0.58378,-7.197413 0.53982,-10.190584 0.34071,-0.907651 0.77597,-1.776949 1.16395,-2.665424 2.11034,-4.235197 4.98052,-7.639652 8.79541,-10.452863 2.61346,-1.927236 3.90455,-2.470639 6.77488,-3.987197 4.3772,-2.01639 8.98675,-3.423381 13.61686,-4.716273 6.39762,-1.780103 8.91507,7.267497 2.51745,9.0476 l 0,0 c -4.00009,1.108578 -7.98074,2.315452 -11.78654,3.992946 -0.92909,0.478168 -1.87821,0.919267 -2.78727,1.434503 -2.24978,1.275133 -4.42053,2.832436 -6.11708,4.805676 -1.15788,1.346727 -1.5655,2.203894 -2.44354,3.716024 -0.26581,0.570534 -0.55956,1.128871 -0.79745,1.711603 -0.63786,1.562491 -0.40182,1.241674 -0.80414,2.667367 -0.0377,0.133488 -0.0135,0.368054 -0.15074,0.38784 -0.53018,0.07641 -0.34946,-1.951684 -1.21621,-1.050344 -0.10744,-0.03295 -0.68453,-0.349819 -0.94291,-0.166333 -0.071,0.0504 -0.004,0.18108 -0.047,0.256883 -0.61981,1.097951 0.14282,-0.619498 -0.54335,1.057484 -0.002,0.255896 -0.0588,0.517182 -0.007,0.76769 0.0153,0.07337 0.16175,0.186856 0.19138,0.118016 0.20006,-0.464722 -0.40039,-1.597314 -0.4835,-1.756393 -0.7597,-1.454003 -1.35711,-2.099164 -2.37901,-3.429427 -1.65221,-1.738952 -2.16317,-2.387836 -4.08803,-3.930178 -3.68706,-2.954349 -7.93582,-5.104615 -12.33333,-6.782077 -1.07312,-0.361484 -2.13513,-0.757774 -3.21934,-1.084452 -4.04277,-1.218105 -8.26979,-1.846147 -12.4913,-1.500468 -0.6007,0.0775 -2.20213,0.180778 -2.82319,0.492692 -0.67994,0.341488 -1.21264,0.902496 -1.74273,1.430846 -4.69565,4.695652 -11.33631,-1.945003 -6.64065,-6.640655 z"
       inkscape:connector-curvature="0"
       transform="translate(0,972.36218)" />
    <path
       style="color:#000000;fill:#d8ffff;fill-opacity:1;fill-rule:nonzero;stroke:none;stroke-width:1;marker:none;visibility:visible;display:inline;overflow:visible;enable-background:accumulate"
       id="path3813"
       d="m 326.67501,30.313553 c -1.21246,2.018532 -2.18594,4.196355 -2.9585,6.419881 -0.24539,0.706259 -0.44387,1.427955 -0.6658,2.141932 -0.69465,2.82105 -1.60601,5.902754 -0.75954,8.803489 0.0779,0.266845 0.21301,0.513522 0.31952,0.770283 0.10697,0.146768 0.19422,0.31019 0.32093,0.440303 0.29644,0.304398 1.32021,0.524907 1.72479,0.61389 1.15918,0.168369 2.31888,0.197864 3.47448,0.400652 2.87155,0.704133 4.0065,2.349815 5.43559,4.715601 1.00433,1.676258 1.55538,3.530766 2.01895,5.411449 1.53545,6.460704 -7.60137,8.63216 -9.13682,2.171456 l 0,0 c -0.20978,-0.947938 -0.44284,-1.888819 -0.92908,-2.741086 -0.13057,-0.218161 -0.2628,-0.435341 -0.39172,-0.654483 -0.0588,-0.09995 -0.14144,-0.190702 -0.17141,-0.302723 -0.01,-0.03618 0.0702,0.02705 0.10264,0.04568 0.50652,0.290481 0.69338,0.514733 1.19318,0.555585 0.11719,-0.02854 0.12549,-0.02319 -0.16086,-0.04211 -0.25259,-0.01669 -0.50599,-0.01916 -0.75852,-0.03672 -0.64183,-0.04465 -1.33887,-0.11554 -1.96978,-0.226107 -0.4258,-0.07462 -0.84667,-0.174996 -1.27001,-0.262494 -0.47063,-0.143081 -0.95109,-0.257093 -1.41187,-0.429243 -2.45069,-0.915576 -4.58636,-2.490071 -5.99513,-4.724095 -0.38557,-0.611445 -0.65006,-1.291332 -0.9751,-1.936998 -0.63824,-2.06218 -0.85976,-2.395613 -1.04553,-4.601389 -0.30852,-3.663231 0.44601,-7.292019 1.42969,-10.798277 0.28955,-0.906132 0.55215,-1.821318 0.86864,-2.718395 0.93758,-2.657554 2.11998,-5.251581 3.55733,-7.67547 3.29468,-5.765703 11.44862,-1.106311 8.15393,4.659392 z"
       inkscape:connector-curvature="0"
       transform="translate(0,972.36218)" />
  </g>
</svg>
